<?xml version="1.0" encoding="UTF-8"?>
<svg id="Layer_3" data-name="Layer 3" xmlns="http://www.w3.org/2000/svg" viewBox="0 0 500 500">
  <defs>
    <style>
      .cls-1 {
        fill: #ff7c85;
      }

      .cls-2 {
        fill: #1e3865;
      }

      .cls-3 {
        fill: #6aad75;
      }

      .cls-4 {
        fill: #85d0e0;
      }

      .cls-5 {
        fill: #3b7651;
      }

      .cls-6 {
        fill: #5badc8;
      }
    </style>
  </defs>
  <circle class="cls-4" cx="250" cy="250" r="250" transform="translate(-103.55 250) rotate(-45)"/>
  <path class="cls-6" d="M250,436.77c-127.35,0-232.39-95.25-247.94-218.39C.75,228.75,0,239.28,0,250,0,388.07,111.93,500,250,500s250-111.93,250-250c0-10.72-.75-21.25-2.06-31.61-15.55,123.13-120.59,218.39-247.94,218.39Z"/>
  <path class="cls-1" d="M261.06,250.11s-72.65-49.8-111.58,4.73c-47.68,66.78,71.39,173,170.4,172.47,0,0,112.77-171.09,43.97-219.74-68.8-48.65-102.79,42.55-102.79,42.55Z"/>
  <path class="cls-3" d="M0,250C0,143.47,66.66,52.56,160.51,16.56c5.85,18.93-2.58,42.71-21.18,50.84-6.42,2.8-13.95,4.2-18.41,9.6-11.02,13.34,7.12,31.79,7.52,49.08,.66,28.52-45.19,39.62-46.93,68.1,11.59,.76,11.77,18.38,5.74,28.3-6.03,9.92-14.86,21.59-9.18,31.72,5.93,10.57,24.59,11.29,26.47,23.27,.59,3.77-.87,7.52-2.31,11.07-5.21,12.84-16.11,23.66-19.17,37.51-4.97,22.53,19.16,15.06,32.33,20.81,10.71,4.68,19.89,12.31,27.52,21.08,15.73,18.08,27.61,40.21,47.55,53.52,8.77,5.86,18.89,9.84,26.49,17.15,7.6,7.31,11.93,19.77,5.91,28.42-8.76,12.6-28.35,6.25-41.71-1.3-21.53-12.16-43.05-24.31-64.58-36.47-7.5-4.23-15.5-8.6-24.11-8.28-6.56,.25-12.37,3.36-16.87,8.04C28.98,383.61,0,320.21,0,250Zm496.47-41.7c-18.82,8.73-40.7,10.79-59.68,19.64-35.49,16.55-56.07,66.26-31.92,97.09,5.33,6.81,12.91,14.43,10.04,22.59-1.66,4.72-6.33,7.52-10.18,10.71-16.11,13.38-19.55,37.56-13.95,57.74,2.99,10.76,8.1,20.65,14.09,30.1,57.92-45.79,95.13-116.61,95.13-196.18,0-14.21-1.25-28.13-3.53-41.7Zm-72.09-53.88c15.67,9.89,34.46-1.02,52.87-8.58C437.75,59.79,350.88,0,250,0c-2.6,0-5.17,.12-7.74,.2-7.59,26.17,3.56,58.71,29.14,67.96,16.22,5.87,34.13,1.76,51.37,2.28,34.69,1.04,67.96,22.85,82.75,54.25,5.08,10.79,8.79,23.36,18.87,29.73Z"/>
  <g>
    <path class="cls-5" d="M499.35,232.91c-.35-4.88-.8-9.72-1.41-14.52-9.3,73.61-50.59,137.24-109.51,176.53-.3,7.13,.46,14.37,2.35,21.16,2.99,10.76,8.1,20.65,14.09,30.1,0,0,.01,0,.01-.01,18.02-14.25,34.03-30.92,47.54-49.53,.17-.23,.32-.46,.49-.69,2.42-3.35,4.75-6.77,7-10.24,.35-.54,.69-1.08,1.04-1.62,2.07-3.25,4.06-6.55,5.98-9.89,.36-.63,.73-1.26,1.09-1.9,1.93-3.43,3.78-6.92,5.55-10.45,.25-.5,.52-1,.77-1.5,4.04-8.19,7.66-16.64,10.8-25.31,.07-.2,.14-.41,.21-.62,1.41-3.94,2.72-7.92,3.94-11.95,.36-1.19,.68-2.39,1.02-3.58,.88-3.08,1.72-6.18,2.49-9.3,.37-1.51,.71-3.04,1.05-4.57,.65-2.87,1.24-5.76,1.79-8.66,.31-1.65,.61-3.31,.89-4.97,.48-2.87,.89-5.77,1.27-8.67,.22-1.67,.45-3.33,.64-5,.34-3.11,.6-6.24,.82-9.39,.11-1.47,.25-2.93,.34-4.4,.25-4.61,.41-9.25,.41-13.93,0-4.96-.2-9.86-.5-14.74-.05-.78-.1-1.57-.15-2.35Z"/>
    <path class="cls-5" d="M.61,266.59c.2,3.09,.4,6.17,.71,9.23,.13,1.29,.34,2.55,.49,3.84,.35,2.95,.69,5.91,1.14,8.82,.19,1.2,.44,2.39,.64,3.59,.5,2.98,1.01,5.95,1.62,8.89,.22,1.06,.5,2.1,.73,3.16,.67,3.05,1.36,6.1,2.14,9.11,.23,.9,.52,1.78,.76,2.68,.86,3.14,1.73,6.28,2.71,9.37,.23,.73,.5,1.45,.74,2.18,1.05,3.23,2.14,6.45,3.32,9.62,.22,.58,.46,1.15,.68,1.73,1.26,3.3,2.56,6.59,3.95,9.82,.18,.42,.38,.83,.56,1.25,1.47,3.37,3,6.72,4.61,10.01,.15,.3,.31,.59,.45,.89,1.69,3.4,3.43,6.77,5.27,10.08,.09,.17,.2,.33,.29,.5,1.91,3.42,3.88,6.81,5.95,10.13,.05,.07,.09,.15,.14,.22,2.12,3.41,4.32,6.77,6.59,10.07,0,0,0,.01,.01,.02,9.26,13.41,19.8,25.88,31.44,37.23,0,0,.01,.01,.02,.02,4.5-4.68,10.31-7.79,16.87-8.04,8.61-.32,16.61,4.04,24.11,8.28,21.53,12.16,43.05,24.31,64.58,36.47,13.37,7.55,32.95,13.91,41.71,1.3,6.02-8.66,1.68-21.12-5.91-28.42-1.91-1.83-3.97-3.46-6.13-4.95C101.64,416.45,15.98,328.62,2.06,218.39c-.65,5.12-1.15,10.28-1.5,15.49-.01,.16-.02,.31-.03,.47C.19,239.52,0,244.74,0,250c0,4.36,.11,8.68,.33,12.98,.06,1.21,.2,2.4,.27,3.6Z"/>
  </g>
  <path class="cls-2" d="M188.2,339.1c-1.06-.53-2.12-.99-3.27-1.25-.57-.13-1.14-.28-1.7-.45-.18-.05-.37-.12-.55-.18,.81-.4,1.58-.86,2.41-1.22-.63,.27-1.26,.53-1.89,.8,1.7-.71,3.39-1.43,5.06-2.2,1.45-.66,2.58-1.66,3.66-2.78,2.81-2.91,2.54-8.39-1.34-10.37-.92-.47-1.91-.99-2.91-1.18-.44-.08-.9-.13-1.34-.19-1.38-.19-1.62-.12-3.28,.17-.31,.06-.63,.12-.94,.18-.21,.04-.4,.14-.61,.19,.36-.65,.73-1.3,1.09-1.95,.26-.48,.52-.96,.77-1.45,.87-1.68,1.34-3.29,1.46-5.19,.09-1.34-.46-3.05-1.14-4.2-.92-1.56-2.33-2.71-3.98-3.41-3.18-1.34-6.56-.56-9.09,1.72-1.33,1.2-2,2.81-2.78,4.37-.56,1.11-1.14,2.21-1.73,3.31-1.14,2.15-2.2,4.34-3.19,6.56-.56,1.26-1.07,2.51-1.53,3.78-1.22,.47-2.39,1.22-3.42,2.33-2.21,2.37-5.06,3.72-9.7,4.99-5.34,1.46-10.84,2.25-16.35,2.71-11.1,.93-24.77,1-34.43-.74-11.24-2.02-21.69-8.09-31.02-14.43-5.3-3.61-10.35-7.86-14.45-12.81-3.81-4.6-3.99-9.69-6.68-14.69-1.57-2.92-6.54-3.92-8.78-1.13-10.14,12.62,6.52,31.39,15.6,39.34,11.04,9.68,24.8,18.68,39.32,21.94,13.99,3.14,29.1,3.61,43.35,2.57,11.02-.81,23.87-2.55,33.07-9.3,1.22,1.47,2.64,2.78,4.08,3.99,1.52,1.27,3.22,2.43,4.98,3.35,2.2,1.15,4.53,2.3,7.08,2.2,1.86-.07,3.53-.63,5.01-1.77,1.37-1.05,2.57-2.56,2.96-4.29,.33-1.45,.33-2.94,0-4.39-.42-1.85-2.09-4.08-3.8-4.94Z"/>
  <path class="cls-2" d="M378.69,292.32c.21-1.17,.48-2.29,.96-3.37,.24-.53,.46-1.08,.66-1.63,.07-.18,.12-.37,.19-.55-.81,.41-1.64,.75-2.42,1.2,.59-.35,1.18-.69,1.78-1.04-1.59,.93-3.18,1.86-4.79,2.73-1.4,.76-2.87,1.07-4.42,1.26-4.02,.5-8.23-3-7.5-7.29,.17-1.02,.35-2.12,.81-3.04,.2-.4,.43-.8,.65-1.18,.68-1.22,.87-1.37,2.1-2.52,.23-.22,.47-.43,.71-.64,.16-.14,.35-.24,.52-.37-.74-.1-1.48-.19-2.21-.3-.54-.08-1.08-.16-1.62-.25-1.87-.31-3.44-.9-5.03-1.94-1.13-.74-2.16-2.2-2.68-3.43-.7-1.67-.77-3.49-.34-5.23,.83-3.35,3.49-5.58,6.83-6.25,1.76-.35,3.45,.09,5.17,.39,1.23,.22,2.46,.41,3.69,.61,2.4,.38,4.79,.84,7.16,1.38,1.34,.31,2.65,.65,3.94,1.04,1.11-.7,2.41-1.18,3.92-1.34,3.22-.35,6.01-1.82,9.81-4.77,4.37-3.4,8.3-7.33,11.97-11.46,7.4-8.33,15.65-19.22,20.06-28,5.12-10.21,6.53-22.21,7.05-33.48,.29-6.41-.09-12.99-1.59-19.25-1.4-5.81-5.36-9-7.75-14.15-1.39-3.01,.78-7.59,4.36-7.71,16.18-.55,21.21,24.04,22.14,36.07,1.13,14.64,.09,31.05-6.01,44.63-5.88,13.08-14.55,25.45-23.94,36.23-7.25,8.33-16.35,17.57-27.27,20.89,.44,1.86,.65,3.78,.74,5.65,.1,1.98,.02,4.03-.3,5.99-.4,2.46-.87,5-2.49,6.99-1.18,1.45-2.62,2.45-4.42,2.94-1.66,.46-3.59,.52-5.21-.2-1.36-.61-2.55-1.5-3.52-2.63-1.23-1.45-2.01-4.12-1.68-6Z"/>
  <g>
    <path class="cls-2" d="M188.9,160.14c.12-.23,.09-.18,0,0h0Z"/>
    <path class="cls-2" d="M268.69,117.12c-.98-.97-2.03-1.49-3.31-1.97-3.62-1.35-7.65-.71-11.03,.94-1.8,.88-3.38,2.05-4.66,3.59-.85,1.02-1.37,1.93-1.86,3.15-.06,.15-.12,.3-.18,.45,.23-.57-.44,1.06-.28,.68-.16,.38-.31,.77-.44,1.16-.59,1.64,1.44,2.92,2.81,2.16,.3-.17,.61-.33,.92-.49,.12-.06,.24-.12,.37-.18,.06-.02,.25-.09,.31-.11,.91-.29,1.77-.63,2.63-1.04,.1-.05,.2-.09,.3-.14,.39,5.48,.72,10.48-1.06,15.97-1.86,5.75-5.72,10.85-10.44,14.92-8.66,7.46-21.77,11.92-33.01,8.31-3-.96-5.99-2.5-8.44-4.49-1.47-1.19-2.85-2.57-4.06-4.01-1.14-1.36-1.98-3.29-3.5-4.24,.17-.22,.35-.44,.54-.65,.65-.73,1.36-1.42,2.06-2.1,.16-.16,.33-.31,.5-.46,0,0,0,0,.01-.01,.28-.11,.66-.46,.89-.6,.75-.46,1.73-.9,2.34-1.53,1.06-1.09,1.21-3.09,0-4.16-2.35-2.08-5.73-.94-8.07,.52-2.39,1.49-4.19,3.63-5.87,5.85-1.66,2.2-3.03,4.53-4.03,7.1-.43,1.09-.79,2.21-1.06,3.36-.39,1.65-.3,3.96,.96,5.25,.03,.05,.06,.1,.1,.15,.82,1.2,2.66,1.7,3.76,.49,.02-.02,.04-.05,.07-.07,1.28-.76,2.09-2.46,2.55-3.77,.07-.2,.14-.4,.22-.6,.04-.1,.12-.27,.19-.4-.04,.08-.08,.15-.17,.33,.24-.46,.43-.96,.67-1.43,.53-1.06,1.08-2.11,1.65-3.15,.83,2.73,2.9,5.63,4.32,7.44,2.28,2.91,5.07,5.55,8.34,7.33,6.46,3.51,14.08,4.51,21.32,3.62,15.42-1.9,30.28-11.99,36.69-26.35,3.23-7.24,4.68-16.43,2.02-24.18,.1,.04,.19,.09,.29,.13,.15,.05,.33,.11,.49,.15,.03,0,.02,0,.04,0,.61,.31,1.21,.6,1.9,.69,2.44,.33,4.23-1.38,4.34-3.76,.07-1.53-1.08-2.84-2.1-3.86Z"/>
    <path class="cls-2" d="M193.62,152.01c.06-.06,.06-.06,0,0h0Z"/>
  </g>
  <path class="cls-2" d="M183.22,102.64c-1.38-1.79-3.03-2.32-5.2-2.61-12.04-1.59-24.83-2.85-36.87-.84-4.61,.77-4.42,8.21,0,9.13,5.85,1.22,11.82,1.86,17.78,2.44,2.77,.27,5.54,.59,8.31,.93-1.34,2.49-2.74,4.95-4.07,7.45-3.18,5.97-6.8,11.61-10.42,17.31-.92,1.45-2.14,3.01-2.4,4.75,0,0,0,0,0,0-.31,.5-.64,1.26-.79,1.82-.55,2.01-.07,4.23,1.18,5.86,3.66,4.75,10.23,1.5,13.46-2.06,4.81-5.3,8.45-11.55,11.85-17.82,1.73-3.19,3.21-6.49,4.65-9.82,.86-1.99,1.81-3.96,2.35-6.06,.41-1.6,.74-3.19,1.37-4.71,.78-1.89-.03-4.27-1.19-5.78Z"/>
  <path class="cls-2" d="M271.46,92.18c-5.04-7.25-16.51-6.18-24.33-6.46-1.85-.07-3.7-.14-5.54-.27-.49-.03-3.7-.07-4.9-.34,.03-.04,.05-.08,.08-.12,.33,.04,.43,.06,.03,0,0,0-.02,0-.03,0,1.92-3.04,3.82-6.1,5.8-9.09,1.77-2.67,3.65-5.32,5.29-8.07,.82-1.38,1.51-2.85,2.2-4.3,.91-1.92,1.19-3.46,1.43-5.53,.27-2.38-2.63-3.39-4.39-2.52-5.79,2.87-9.68,8.95-13.82,13.77-4.27,4.96-8.97,9.56-13.18,14.57-3.11,3.71-2.77,8.85,1.49,11.57,6.92,4.42,15.37,5.24,23.37,5.62,3.77,.18,7.54,.24,11.3,.51,3.45,.25,8.15,1.27,11.44-.08,3.42-1.41,6.32-5.54,3.76-9.23Z"/>
  <path class="cls-1" d="M165.9,161.6c2.74,6.3-2.63,14.71-12,18.79-9.37,4.07-19.19,2.26-21.92-4.04-2.74-6.3,2.63-14.71,12-18.79,9.37-4.07,19.19-2.27,21.92,4.04Z"/>
  <path class="cls-1" d="M309.17,93.67c2.74,6.3-2.63,14.71-12,18.79s-19.19,2.26-21.93-4.04,2.63-14.71,12-18.79c9.37-4.07,19.19-2.26,21.93,4.04Z"/>
</svg>